# xmcd
#
# Track frame offsets: 
#        150
#        21812
#        38103
#        54431
#        73909
#        88856
#        103982
#        123535
#        139145
#        160666
#        177642
#        190553
#        206355
#        219865
#        235031
#        248961
#        266292
#        283616
#        300053
#        317318
#
# Disc length: 4466 seconds
#
# Revision: 3
# Processed by: cddbd v1.5.2PL0 Copyright (c) Steve Scherf et al.
# Submitted via: ExactAudioCopyFreeDBPlugin 1.0
#
DISCID=10117014
DTITLE=Kenny Rogers - 1997 - Love Songs
DYEAR=1997
DGENRE=Country
TTITLE0=Have I Told You Lately That I Love You
TTITLE1=Evergreen
TTITLE2=Lucille
TTITLE3=I Only Have Eyes For You
TTITLE4=Crazy
TTITLE5=Misty
TTITLE6=She Believes In Me
TTITLE7=When I Fall In Love
TTITLE8=Always and Forever
TTITLE9=You Decorated My Life
TTITLE10=Ruby, Don't Take Your Love To Town
TTITLE11=Unchained Melody
TTITLE12=I Will Always Love You
TTITLE13=Can't Help Falling In Love
TTITLE14=Love Me Tender
TTITLE15=Endless Love
TTITLE16=I Swear
TTITLE17=Wind Beneath My Wings
TTITLE18=Lady
TTITLE19=We've Got Tonight
EXTD=
EXTT0=
EXTT1=
EXTT2=
EXTT3=
EXTT4=
EXTT5=
EXTT6=
EXTT7=
EXTT8=
EXTT9=
EXTT10=
EXTT11=
EXTT12=
EXTT13=
EXTT14=
EXTT15=
EXTT16=
EXTT17=
EXTT18=
EXTT19=
PLAYORDER=
